<svg xmlns="http://www.w3.org/2000/svg" viewBox="0 0 30 100">
  <rect x="2" y="2" width="26" height="96" rx="2" fill="#fff" stroke="#222" stroke-width="2"/>
  <clipPath id="br"><rect x="2" y="2" width="26" height="96" rx="2"/></clipPath>
  <g clip-path="url(#br)">
    <polygon points="2,2 28,2 2,28" fill="#d32f2f"/>
    <polygon points="28,16 28,42 2,42 2,16" fill="#d32f2f"/>
    <polygon points="2,42 28,42 28,68 2,68" fill="#fff"/>
    <polygon points="28,56 28,82 2,82 2,56" fill="#d32f2f"/>
    <polygon points="2,82 28,82 28,98 2,98" fill="#fff"/>
    <!-- Diagonal stripes -->
    <rect x="-10" y="6" width="50" height="14" fill="#d32f2f" transform="rotate(-50 15 13)"/>
    <rect x="-10" y="32" width="50" height="14" fill="#d32f2f" transform="rotate(-50 15 39)"/>
    <rect x="-10" y="58" width="50" height="14" fill="#d32f2f" transform="rotate(-50 15 65)"/>
    <rect x="-10" y="84" width="50" height="14" fill="#d32f2f" transform="rotate(-50 15 91)"/>
  </g>
</svg>