<svg xmlns="http://www.w3.org/2000/svg" viewBox="0 0 36 130">
  <!-- Bake -->
  <rect x="5" y="2" width="26" height="96" rx="2" fill="#fff" stroke="#222" stroke-width="2"/>
  <clipPath id="brl"><rect x="5" y="2" width="26" height="96" rx="2"/></clipPath>
  <g clip-path="url(#brl)">
    <rect x="-7" y="6" width="50" height="14" fill="#d32f2f" transform="rotate(-50 18 13)"/>
    <rect x="-7" y="32" width="50" height="14" fill="#d32f2f" transform="rotate(-50 18 39)"/>
    <rect x="-7" y="58" width="50" height="14" fill="#d32f2f" transform="rotate(-50 18 65)"/>
    <rect x="-7" y="84" width="50" height="14" fill="#d32f2f" transform="rotate(-50 18 91)"/>
  </g>
  <!-- Warnleuchte -->
  <circle cx="18" cy="115" r="12" fill="#FFD600" stroke="#F9A825" stroke-width="2"/>
  <line x1="18" y1="100" x2="18" y2="105" stroke="#F9A825" stroke-width="1.5"/>
  <line x1="6" y1="108" x2="9" y2="111" stroke="#F9A825" stroke-width="1.5"/>
  <line x1="30" y1="108" x2="27" y2="111" stroke="#F9A825" stroke-width="1.5"/>
  <line x1="4" y1="118" x2="8" y2="117" stroke="#F9A825" stroke-width="1.5"/>
  <line x1="32" y1="118" x2="28" y2="117" stroke="#F9A825" stroke-width="1.5"/>
</svg>